# Blender v2.81 (sub 16) OBJ File: ''
# www.blender.org
mtllib circleMountain.mtl
o Circle_Circle.001
v 0.000000 0.000000 -1.000000
v -0.195090 0.000000 -0.980785
v -0.382683 0.000000 -0.923880
v -0.555570 0.000000 -0.831470
v -0.707107 0.000000 -0.707107
v -0.831470 0.000000 -0.555570
v -0.923880 0.000000 -0.382683
v -0.980785 0.000000 -0.195090
v -1.000000 0.000000 -0.000000
v -0.980785 0.000000 0.195090
v -0.923880 0.000000 0.382683
v -0.831470 0.000000 0.555570
v -0.707107 0.000000 0.707107
v -0.555570 0.000000 0.831470
v -0.382683 0.000000 0.923880
v -0.195090 0.000000 0.980785
v 0.000000 0.000000 1.000000
v 0.195091 0.000000 0.980785
v 0.382684 0.000000 0.923879
v 0.555571 0.000000 0.831469
v 0.707107 0.000000 0.707106
v 0.831470 0.000000 0.555570
v 0.923880 0.000000 0.382683
v 0.980785 0.000000 0.195089
v 1.000000 0.000000 -0.000001
v 0.980785 0.000000 -0.195091
v 0.923879 0.000000 -0.382684
v 0.831469 0.000000 -0.555571
v 0.707106 0.000000 -0.707108
v 0.555569 0.000000 -0.831470
v 0.382682 0.000000 -0.923880
v 0.195089 0.000000 -0.980786
v -0.665247 0.000000 -0.653281
v -0.746744 0.003422 -0.449988
v -0.796929 0.015206 -0.229402
v -0.813875 0.021388 -0.000000
v -0.796929 0.015206 0.229402
v -0.746744 0.003422 0.449988
v -0.665247 0.000000 0.653282
v -0.463927 0.005549 -0.725887
v -0.524297 0.074727 -0.500000
v -0.561472 0.170413 -0.254898
v -0.574025 0.214775 -0.000000
v -0.561472 0.170413 0.254898
v -0.524297 0.074727 0.500000
v -0.463927 0.005549 0.725887
v -0.238214 0.024649 -0.770598
v -0.270258 0.191910 -0.530797
v -0.289991 0.415744 -0.270598
v -0.296654 0.524043 -0.000000
v -0.289991 0.415744 0.270598
v -0.270258 0.191910 0.530797
v -0.238214 0.024649 0.770598
v 0.000000 0.035123 -0.785695
v 0.000000 0.250659 -0.541196
v 0.000000 0.544687 -0.275899
v 0.000000 0.698685 -0.000000
v 0.000000 0.544687 0.275899
v 0.000000 0.250659 0.541196
v 0.000000 0.035123 0.785695
v 0.238213 0.024650 -0.770598
v 0.270257 0.191910 -0.530797
v 0.289990 0.415744 -0.270598
v 0.296654 0.524044 -0.000000
v 0.289991 0.415744 0.270598
v 0.270258 0.191910 0.530797
v 0.238215 0.024649 0.770598
v 0.463926 0.005549 -0.725888
v 0.524296 0.074727 -0.500001
v 0.561472 0.170413 -0.254899
v 0.574025 0.214775 -0.000001
v 0.561473 0.170413 0.254897
v 0.524297 0.074727 0.500000
v 0.463928 0.005549 0.725887
v 0.665246 0.000000 -0.653282
v 0.746743 0.003422 -0.449989
v 0.796929 0.015206 -0.229403
v 0.813875 0.021388 -0.000001
v 0.796929 0.015206 0.229401
v 0.746744 0.003422 0.449987
v 0.665247 0.000000 0.653281
vt 0.084265 0.777785
vt 0.167377 0.826641
vt 0.222215 0.915735
vt 0.146447 0.853553
vt 0.268036 0.862944
vt 0.308658 0.961940
vt 0.380893 0.885299
vt 0.402455 0.990393
vt 0.500000 0.892847
vt 0.500000 1.000000
vt 0.619107 0.885299
vt 0.597544 0.990393
vt 0.731963 0.862944
vt 0.691341 0.961940
vt 0.832623 0.826641
vt 0.777785 0.915735
vt 0.915734 0.777786
vt 0.853553 0.853554
vt 0.038060 0.691342
vt 0.126628 0.724994
vt 0.237851 0.750000
vt 0.364871 0.765399
vt 0.500000 0.770598
vt 0.635129 0.765399
vt 0.762148 0.750000
vt 0.873371 0.724995
vt 0.961940 0.691342
vt 0.009607 0.597545
vt 0.101535 0.614701
vt 0.219264 0.627449
vt 0.355005 0.635299
vt 0.500000 0.637950
vt 0.644995 0.635299
vt 0.780736 0.627449
vt 0.898464 0.614701
vt 0.990393 0.597546
vt 0.000000 0.500000
vt 0.093063 0.500000
vt 0.212987 0.500000
vt 0.351673 0.500000
vt 0.500000 0.500000
vt 0.648327 0.500000
vt 0.787012 0.500000
vt 0.906937 0.500000
vt 1.000000 0.500000
vt 0.009607 0.402455
vt 0.101535 0.385299
vt 0.219264 0.372551
vt 0.355005 0.364701
vt 0.500000 0.362050
vt 0.644995 0.364701
vt 0.780736 0.372551
vt 0.898465 0.385299
vt 0.990393 0.402455
vt 0.038060 0.308658
vt 0.126628 0.275006
vt 0.237851 0.250000
vt 0.364871 0.234601
vt 0.500000 0.229402
vt 0.635129 0.234602
vt 0.762149 0.250000
vt 0.873372 0.275006
vt 0.961940 0.308659
vt 0.084265 0.222215
vt 0.167377 0.173359
vt 0.268036 0.137056
vt 0.380893 0.114701
vt 0.500000 0.107152
vt 0.619107 0.114701
vt 0.731964 0.137056
vt 0.832624 0.173359
vt 0.915735 0.222215
vt 0.146447 0.146447
vt 0.222215 0.084265
vt 0.308658 0.038060
vt 0.402455 0.009607
vt 0.500000 0.000000
vt 0.597545 0.009607
vt 0.691342 0.038060
vt 0.777785 0.084265
vt 0.853554 0.146447
vn 0.0000 1.0000 0.0000
vn -0.0275 0.9992 -0.0287
vn -0.0691 0.9931 -0.0945
vn -0.0352 0.9891 -0.1429
vn 0.0352 0.9891 -0.1429
vn 0.0691 0.9931 -0.0945
vn 0.0275 0.9992 -0.0287
vn -0.0184 0.9997 -0.0176
vn -0.2397 0.9411 -0.2384
vn -0.3088 0.8219 -0.4786
vn -0.1363 0.7728 -0.6198
vn 0.1363 0.7728 -0.6198
vn 0.3088 0.8219 -0.4786
vn 0.2397 0.9411 -0.2384
vn 0.0184 0.9997 -0.0176
vn -0.0643 0.9969 -0.0456
vn -0.4624 0.8411 -0.2808
vn -0.5221 0.6931 -0.4971
vn -0.2487 0.6852 -0.6846
vn 0.2487 0.6852 -0.6846
vn 0.5221 0.6931 -0.4971
vn 0.4624 0.8410 -0.2808
vn 0.0643 0.9969 -0.0456
vn -0.1005 0.9947 -0.0230
vn -0.5913 0.7976 -0.1193
vn -0.6959 0.6824 -0.2237
vn -0.4249 0.8141 -0.3959
vn 0.4249 0.8141 -0.3959
vn 0.6959 0.6824 -0.2237
vn 0.5913 0.7976 -0.1193
vn 0.1005 0.9947 -0.0230
vn -0.1005 0.9947 0.0230
vn -0.5913 0.7976 0.1193
vn -0.6959 0.6824 0.2237
vn -0.4249 0.8141 0.3959
vn 0.4249 0.8141 0.3959
vn 0.6959 0.6824 0.2237
vn 0.5913 0.7976 0.1193
vn 0.1005 0.9947 0.0230
vn -0.0643 0.9969 0.0456
vn -0.4624 0.8411 0.2808
vn -0.5221 0.6931 0.4971
vn -0.2487 0.6852 0.6846
vn 0.2487 0.6852 0.6846
vn 0.5221 0.6931 0.4971
vn 0.4624 0.8410 0.2808
vn 0.0643 0.9969 0.0456
vn -0.0184 0.9997 0.0176
vn -0.2397 0.9411 0.2384
vn -0.3088 0.8219 0.4786
vn -0.1363 0.7728 0.6198
vn 0.1363 0.7728 0.6198
vn 0.3088 0.8219 0.4786
vn 0.2397 0.9411 0.2384
vn 0.0184 0.9997 0.0176
vn -0.0275 0.9992 0.0287
vn -0.0691 0.9931 0.0945
vn -0.0352 0.9891 0.1429
vn 0.0352 0.9891 0.1429
vn 0.0691 0.9931 0.0945
vn 0.0275 0.9992 0.0287
usemtl None
s off
f 6/1/1 33/2/1 4/3/1 5/4/1
f 33/2/2 40/5/2 3/6/2 4/3/2
f 40/5/3 47/7/3 2/8/3 3/6/3
f 47/7/4 54/9/4 1/10/4 2/8/4
f 54/9/5 61/11/5 32/12/5 1/10/5
f 61/11/6 68/13/6 31/14/6 32/12/6
f 68/13/7 75/15/7 30/16/7 31/14/7
f 75/15/1 28/17/1 29/18/1 30/16/1
f 7/19/8 34/20/8 33/2/8 6/1/8
f 34/20/9 41/21/9 40/5/9 33/2/9
f 41/21/10 48/22/10 47/7/10 40/5/10
f 48/22/11 55/23/11 54/9/11 47/7/11
f 55/23/12 62/24/12 61/11/12 54/9/12
f 62/24/13 69/25/13 68/13/13 61/11/13
f 69/25/14 76/26/14 75/15/14 68/13/14
f 76/26/15 27/27/15 28/17/15 75/15/15
f 8/28/16 35/29/16 34/20/16 7/19/16
f 35/29/17 42/30/17 41/21/17 34/20/17
f 42/30/18 49/31/18 48/22/18 41/21/18
f 49/31/19 56/32/19 55/23/19 48/22/19
f 56/32/20 63/33/20 62/24/20 55/23/20
f 63/33/21 70/34/21 69/25/21 62/24/21
f 70/34/22 77/35/22 76/26/22 69/25/22
f 77/35/23 26/36/23 27/27/23 76/26/23
f 9/37/24 36/38/24 35/29/24 8/28/24
f 36/38/25 43/39/25 42/30/25 35/29/25
f 43/39/26 50/40/26 49/31/26 42/30/26
f 50/40/27 57/41/27 56/32/27 49/31/27
f 57/41/28 64/42/28 63/33/28 56/32/28
f 64/42/29 71/43/29 70/34/29 63/33/29
f 71/43/30 78/44/30 77/35/30 70/34/30
f 78/44/31 25/45/31 26/36/31 77/35/31
f 10/46/32 37/47/32 36/38/32 9/37/32
f 37/47/33 44/48/33 43/39/33 36/38/33
f 44/48/34 51/49/34 50/40/34 43/39/34
f 51/49/35 58/50/35 57/41/35 50/40/35
f 58/50/36 65/51/36 64/42/36 57/41/36
f 65/51/37 72/52/37 71/43/37 64/42/37
f 72/52/38 79/53/38 78/44/38 71/43/38
f 79/53/39 24/54/39 25/45/39 78/44/39
f 11/55/40 38/56/40 37/47/40 10/46/40
f 38/56/41 45/57/41 44/48/41 37/47/41
f 45/57/42 52/58/42 51/49/42 44/48/42
f 52/58/43 59/59/43 58/50/43 51/49/43
f 59/59/44 66/60/44 65/51/44 58/50/44
f 66/60/45 73/61/45 72/52/45 65/51/45
f 73/61/46 80/62/46 79/53/46 72/52/46
f 80/62/47 23/63/47 24/54/47 79/53/47
f 12/64/48 39/65/48 38/56/48 11/55/48
f 39/65/49 46/66/49 45/57/49 38/56/49
f 46/66/50 53/67/50 52/58/50 45/57/50
f 53/67/51 60/68/51 59/59/51 52/58/51
f 60/68/52 67/69/52 66/60/52 59/59/52
f 67/69/53 74/70/53 73/61/53 66/60/53
f 74/70/54 81/71/54 80/62/54 73/61/54
f 81/71/55 22/72/55 23/63/55 80/62/55
f 13/73/1 14/74/1 39/65/1 12/64/1
f 14/74/56 15/75/56 46/66/56 39/65/56
f 15/75/57 16/76/57 53/67/57 46/66/57
f 16/76/58 17/77/58 60/68/58 53/67/58
f 17/77/59 18/78/59 67/69/59 60/68/59
f 18/78/60 19/79/60 74/70/60 67/69/60
f 19/79/61 20/80/61 81/71/61 74/70/61
f 20/80/1 21/81/1 22/72/1 81/71/1
