# Blender v2.81 (sub 16) OBJ File: ''
# www.blender.org
mtllib circleMountain_smooth.mtl
o Circle_Circle.000
v -0.831470 0.000000 -0.555570
v -0.665247 0.000000 -0.653281
v -0.555570 0.000000 -0.831470
v -0.707107 0.000000 -0.707107
v -0.463927 0.005549 -0.725887
v -0.382683 0.000000 -0.923880
v -0.238214 0.024649 -0.770598
v -0.195090 0.000000 -0.980785
v 0.000000 0.035123 -0.785695
v 0.000000 0.000000 -1.000000
v 0.238213 0.024650 -0.770598
v 0.195089 0.000000 -0.980786
v 0.463926 0.005549 -0.725888
v 0.382682 0.000000 -0.923880
v 0.665246 0.000000 -0.653282
v 0.555569 0.000000 -0.831470
v 0.831469 0.000000 -0.555571
v 0.707106 0.000000 -0.707108
v -0.923880 0.000000 -0.382683
v -0.746744 0.003422 -0.449988
v -0.524297 0.074727 -0.500000
v -0.270258 0.191910 -0.530797
v 0.000000 0.250659 -0.541196
v 0.270257 0.191910 -0.530797
v 0.524296 0.074727 -0.500001
v 0.746743 0.003422 -0.449989
v 0.923879 0.000000 -0.382684
v -0.980785 0.000000 -0.195090
v -0.796929 0.015206 -0.229402
v -0.561472 0.170413 -0.254898
v -0.289991 0.415744 -0.270598
v 0.000000 0.544687 -0.275899
v 0.289990 0.415744 -0.270598
v 0.561472 0.170413 -0.254899
v 0.796929 0.015206 -0.229403
v 0.980785 0.000000 -0.195091
v -1.000000 0.000000 0.000000
v -0.813875 0.021388 0.000000
v -0.574025 0.214775 0.000000
v -0.296654 0.524043 0.000000
v 0.000000 0.698685 0.000000
v 0.296654 0.524044 0.000000
v 0.574025 0.214775 -0.000001
v 0.813875 0.021388 -0.000001
v 1.000000 0.000000 -0.000001
v -0.980785 -0.000000 0.195090
v -0.796929 0.015206 0.229402
v -0.561472 0.170413 0.254898
v -0.289991 0.415744 0.270598
v 0.000000 0.544687 0.275899
v 0.289991 0.415744 0.270598
v 0.561473 0.170413 0.254897
v 0.796929 0.015206 0.229401
v 0.980785 -0.000000 0.195089
v -0.923880 -0.000000 0.382683
v -0.746744 0.003422 0.449988
v -0.524297 0.074727 0.500000
v -0.270258 0.191910 0.530797
v 0.000000 0.250659 0.541196
v 0.270258 0.191910 0.530797
v 0.524297 0.074727 0.500000
v 0.746744 0.003422 0.449987
v 0.923880 -0.000000 0.382683
v -0.831470 -0.000000 0.555570
v -0.665247 -0.000000 0.653282
v -0.463927 0.005549 0.725887
v -0.238214 0.024649 0.770598
v 0.000000 0.035123 0.785695
v 0.238215 0.024649 0.770598
v 0.463928 0.005549 0.725887
v 0.665247 -0.000000 0.653281
v 0.831470 -0.000000 0.555570
v -0.707107 -0.000000 0.707107
v -0.555570 -0.000000 0.831470
v -0.382683 -0.000000 0.923880
v -0.195090 -0.000000 0.980785
v 0.000000 -0.000000 1.000000
v 0.195091 -0.000000 0.980785
v 0.382684 -0.000000 0.923879
v 0.555571 -0.000000 0.831469
v 0.707107 -0.000000 0.707106
vt 0.084265 0.777785
vt 0.167377 0.826641
vt 0.222215 0.915735
vt 0.146447 0.853553
vt 0.268036 0.862944
vt 0.308658 0.961940
vt 0.380893 0.885299
vt 0.402455 0.990393
vt 0.500000 0.892847
vt 0.500000 1.000000
vt 0.619107 0.885299
vt 0.597544 0.990393
vt 0.731963 0.862944
vt 0.691341 0.961940
vt 0.832623 0.826641
vt 0.777785 0.915735
vt 0.915734 0.777786
vt 0.853553 0.853554
vt 0.038060 0.691342
vt 0.126628 0.724994
vt 0.237851 0.750000
vt 0.364871 0.765399
vt 0.500000 0.770598
vt 0.635129 0.765399
vt 0.762148 0.750000
vt 0.873371 0.724995
vt 0.961940 0.691342
vt 0.009607 0.597545
vt 0.101535 0.614701
vt 0.219264 0.627449
vt 0.355005 0.635299
vt 0.500000 0.637950
vt 0.644995 0.635299
vt 0.780736 0.627449
vt 0.898464 0.614701
vt 0.990393 0.597546
vt 0.000000 0.500000
vt 0.093063 0.500000
vt 0.212987 0.500000
vt 0.351673 0.500000
vt 0.500000 0.500000
vt 0.648327 0.500000
vt 0.787012 0.500000
vt 0.906937 0.500000
vt 1.000000 0.500000
vt 0.009607 0.402455
vt 0.101535 0.385299
vt 0.219264 0.372551
vt 0.355005 0.364701
vt 0.500000 0.362050
vt 0.644995 0.364701
vt 0.780736 0.372551
vt 0.898465 0.385299
vt 0.990393 0.402455
vt 0.038060 0.308658
vt 0.126628 0.275006
vt 0.237851 0.250000
vt 0.364871 0.234601
vt 0.500000 0.229402
vt 0.635129 0.234602
vt 0.762149 0.250000
vt 0.873372 0.275006
vt 0.961940 0.308659
vt 0.084265 0.222215
vt 0.167377 0.173359
vt 0.268036 0.137056
vt 0.380893 0.114701
vt 0.500000 0.107152
vt 0.619107 0.114701
vt 0.731964 0.137056
vt 0.832624 0.173359
vt 0.915735 0.222215
vt 0.146447 0.146447
vt 0.222215 0.084265
vt 0.308658 0.038060
vt 0.402455 0.009607
vt 0.500000 0.000000
vt 0.597545 0.009607
vt 0.691342 0.038060
vt 0.777785 0.084265
vt 0.853554 0.146447
vn -0.0162 0.9997 -0.0155
vn -0.0937 0.9912 -0.0933
vn -0.0244 0.9994 -0.0254
vn 0.0000 1.0000 0.0000
vn -0.1615 0.9618 -0.2211
vn -0.0594 0.9951 -0.0791
vn -0.1364 0.9302 -0.3408
vn -0.0476 0.9910 -0.1252
vn -0.0000 0.9202 -0.3914
vn -0.0000 0.9897 -0.1429
vn 0.1364 0.9302 -0.3408
vn 0.0476 0.9910 -0.1252
vn 0.1615 0.9618 -0.2211
vn 0.0594 0.9951 -0.0791
vn 0.0937 0.9912 -0.0933
vn 0.0244 0.9994 -0.0254
vn 0.0162 0.9997 -0.0155
vn -0.0531 0.9978 -0.0388
vn -0.2066 0.9677 -0.1443
vn -0.3838 0.8441 -0.3744
vn -0.3145 0.7537 -0.5770
vn 0.0000 0.7424 -0.6699
vn 0.3145 0.7537 -0.5770
vn 0.3838 0.8441 -0.3744
vn 0.2066 0.9677 -0.1443
vn 0.0531 0.9978 -0.0388
vn -0.0871 0.9957 -0.0314
vn -0.3089 0.9442 -0.1143
vn -0.5754 0.7649 -0.2894
vn -0.4864 0.7403 -0.4641
vn -0.0000 0.8265 -0.5629
vn 0.4864 0.7403 -0.4641
vn 0.5754 0.7649 -0.2894
vn 0.3089 0.9442 -0.1143
vn 0.0871 0.9957 -0.0314
vn -0.1005 0.9949 0.0000
vn -0.3512 0.9363 0.0000
vn -0.6594 0.7518 0.0000
vn -0.5812 0.8138 0.0000
vn 0.5812 0.8138 -0.0000
vn 0.6594 0.7518 -0.0000
vn 0.3512 0.9363 -0.0000
vn 0.1005 0.9949 0.0000
vn -0.0871 0.9957 0.0314
vn -0.3089 0.9442 0.1143
vn -0.5754 0.7649 0.2894
vn -0.4864 0.7403 0.4641
vn -0.0000 0.8265 0.5629
vn 0.4864 0.7403 0.4641
vn 0.5754 0.7649 0.2894
vn 0.3089 0.9442 0.1143
vn 0.0871 0.9957 0.0314
vn -0.0531 0.9978 0.0388
vn -0.2066 0.9677 0.1443
vn -0.3838 0.8441 0.3744
vn -0.3145 0.7537 0.5770
vn -0.0000 0.7424 0.6699
vn 0.3145 0.7537 0.5770
vn 0.3838 0.8441 0.3744
vn 0.2066 0.9677 0.1443
vn 0.0531 0.9978 0.0388
vn -0.0162 0.9997 0.0155
vn -0.0937 0.9912 0.0933
vn -0.1615 0.9618 0.2211
vn -0.1364 0.9302 0.3408
vn -0.0000 0.9202 0.3914
vn 0.1364 0.9302 0.3408
vn 0.1615 0.9618 0.2211
vn 0.0937 0.9912 0.0933
vn 0.0162 0.9997 0.0155
vn -0.0244 0.9994 0.0254
vn -0.0594 0.9951 0.0791
vn -0.0476 0.9910 0.1252
vn -0.0000 0.9897 0.1429
vn 0.0476 0.9910 0.1252
vn 0.0594 0.9951 0.0791
vn 0.0244 0.9994 0.0254
usemtl None.001
s 1
f 1/1/1 2/2/2 3/3/3 4/4/4
f 2/2/2 5/5/5 6/6/6 3/3/3
f 5/5/5 7/7/7 8/8/8 6/6/6
f 7/7/7 9/9/9 10/10/10 8/8/8
f 9/9/9 11/11/11 12/12/12 10/10/10
f 11/11/11 13/13/13 14/14/14 12/12/12
f 13/13/13 15/15/15 16/16/16 14/14/14
f 15/15/15 17/17/17 18/18/4 16/16/16
f 19/19/18 20/20/19 2/2/2 1/1/1
f 20/20/19 21/21/20 5/5/5 2/2/2
f 21/21/20 22/22/21 7/7/7 5/5/5
f 22/22/21 23/23/22 9/9/9 7/7/7
f 23/23/22 24/24/23 11/11/11 9/9/9
f 24/24/23 25/25/24 13/13/13 11/11/11
f 25/25/24 26/26/25 15/15/15 13/13/13
f 26/26/25 27/27/26 17/17/17 15/15/15
f 28/28/27 29/29/28 20/20/19 19/19/18
f 29/29/28 30/30/29 21/21/20 20/20/19
f 30/30/29 31/31/30 22/22/21 21/21/20
f 31/31/30 32/32/31 23/23/22 22/22/21
f 32/32/31 33/33/32 24/24/23 23/23/22
f 33/33/32 34/34/33 25/25/24 24/24/23
f 34/34/33 35/35/34 26/26/25 25/25/24
f 35/35/34 36/36/35 27/27/26 26/26/25
f 37/37/36 38/38/37 29/29/28 28/28/27
f 38/38/37 39/39/38 30/30/29 29/29/28
f 39/39/38 40/40/39 31/31/30 30/30/29
f 40/40/39 41/41/4 32/32/31 31/31/30
f 41/41/4 42/42/40 33/33/32 32/32/31
f 42/42/40 43/43/41 34/34/33 33/33/32
f 43/43/41 44/44/42 35/35/34 34/34/33
f 44/44/42 45/45/43 36/36/35 35/35/34
f 46/46/44 47/47/45 38/38/37 37/37/36
f 47/47/45 48/48/46 39/39/38 38/38/37
f 48/48/46 49/49/47 40/40/39 39/39/38
f 49/49/47 50/50/48 41/41/4 40/40/39
f 50/50/48 51/51/49 42/42/40 41/41/4
f 51/51/49 52/52/50 43/43/41 42/42/40
f 52/52/50 53/53/51 44/44/42 43/43/41
f 53/53/51 54/54/52 45/45/43 44/44/42
f 55/55/53 56/56/54 47/47/45 46/46/44
f 56/56/54 57/57/55 48/48/46 47/47/45
f 57/57/55 58/58/56 49/49/47 48/48/46
f 58/58/56 59/59/57 50/50/48 49/49/47
f 59/59/57 60/60/58 51/51/49 50/50/48
f 60/60/58 61/61/59 52/52/50 51/51/49
f 61/61/59 62/62/60 53/53/51 52/52/50
f 62/62/60 63/63/61 54/54/52 53/53/51
f 64/64/62 65/65/63 56/56/54 55/55/53
f 65/65/63 66/66/64 57/57/55 56/56/54
f 66/66/64 67/67/65 58/58/56 57/57/55
f 67/67/65 68/68/66 59/59/57 58/58/56
f 68/68/66 69/69/67 60/60/58 59/59/57
f 69/69/67 70/70/68 61/61/59 60/60/58
f 70/70/68 71/71/69 62/62/60 61/61/59
f 71/71/69 72/72/70 63/63/61 62/62/60
f 73/73/4 74/74/71 65/65/63 64/64/62
f 74/74/71 75/75/72 66/66/64 65/65/63
f 75/75/72 76/76/73 67/67/65 66/66/64
f 76/76/73 77/77/74 68/68/66 67/67/65
f 77/77/74 78/78/75 69/69/67 68/68/66
f 78/78/75 79/79/76 70/70/68 69/69/67
f 79/79/76 80/80/77 71/71/69 70/70/68
f 80/80/77 81/81/4 72/72/70 71/71/69
