# Blender v2.81 (sub 16) OBJ File: ''
# www.blender.org
mtllib houseOnGround.mtl
o Plane
v -20.000000 0.000000 -20.000000
v -20.000000 0.000000 20.000000
v 20.000000 0.000000 -20.000000
v 20.000000 0.000000 20.000000
vt -14.627303 -14.627303
vt 15.627303 -14.627303
vt 15.627303 15.627303
vt -14.627303 15.627303
vn 0.0000 1.0000 0.0000
usemtl Material.002
s off
f 1/1/1 2/2/1 4/3/1 3/4/1
o Cube_Cube.001
v -1.000000 0.000000 -1.899479
v -1.000000 2.000000 -1.899479
v 1.000000 0.000000 -1.899479
v 1.000000 2.000000 -1.899479
v -1.000000 0.000000 1.899479
v -1.000000 2.000000 1.899479
v 1.000000 0.000000 1.899479
v 1.000000 2.000000 1.899479
vt 1.000000 0.763230
vt 0.666667 0.763230
vt 0.666667 0.500000
vt 1.000000 0.500000
vt 0.666667 0.500000
vt 0.333333 0.500000
vt 0.333333 0.000000
vt 0.666667 0.000000
vt 0.666667 0.500000
vt 0.666667 0.763230
vt 0.333333 0.763230
vt 0.333333 0.500000
vt 0.000000 0.000000
vt 0.333333 0.000000
vt 0.333333 0.500000
vt 0.000000 0.500000
vt 0.000000 1.000000
vt 0.000000 0.500000
vt 0.333333 1.000000
vt 1.000000 0.000000
vt 1.000000 0.500000
vt 0.666667 0.500000
vt 0.666667 0.000000
vn 0.0000 0.0000 -1.0000
vn 1.0000 0.0000 0.0000
vn 0.0000 0.0000 1.0000
vn -1.0000 0.0000 0.0000
vn 0.0000 -1.0000 0.0000
vn 0.0000 1.0000 0.0000
usemtl Material.001
s off
f 5/5/2 6/6/2 8/7/2 7/8/2
f 7/9/3 8/10/3 12/11/3 11/12/3
f 11/13/4 12/14/4 10/15/4 9/16/4
f 9/17/5 10/18/5 6/19/5 5/20/5
f 7/21/6 11/22/6 9/16/6 5/23/6
f 12/24/7 8/25/7 6/26/7 10/27/7
o Cube.001_Cube.002
v 1.414214 1.949796 -1.899479
v -1.414214 1.949796 -1.899479
v 0.000000 3.364009 -1.899479
v 1.414214 1.949796 1.899479
v -1.414214 1.949796 1.899479
v 0.000000 3.364009 1.899479
vt 0.914213 0.573221
vt 0.914214 1.000000
vt 0.707107 0.786611
vt 1.000000 0.573221
vt 0.707107 0.573221
vt 0.707107 0.000000
vt 1.000000 0.000000
vt 0.207107 1.000000
vt 0.000000 0.786611
vt 0.207107 0.573221
vt 0.000000 0.573221
vt 0.000000 0.000000
vt 0.414214 0.000000
vt 0.414213 0.573221
vn 0.0000 0.0000 -1.0000
vn 0.7071 0.7071 0.0000
vn 0.0000 0.0000 1.0000
vn 0.0000 -1.0000 0.0000
vn -0.7071 0.7071 0.0000
usemtl Material.003
s off
f 13/28/8 14/29/8 15/30/8
f 13/31/9 15/32/9 18/33/9 16/34/9
f 16/35/10 18/36/10 17/37/10
f 13/38/11 16/39/11 17/40/11 14/41/11
f 18/33/12 15/32/12 14/41/12 17/40/12
